<?xml version="1.0" encoding="utf-8"?>
<!-- Generator: Adobe Illustrator 27.9.0, SVG Export Plug-In . SVG Version: 6.00 Build 0)  -->
<svg version="1.1" id="Layer_1" xmlns="http://www.w3.org/2000/svg" xmlns:xlink="http://www.w3.org/1999/xlink" x="0px" y="0px"
	 viewBox="0 0 259.2 259.2" style="enable-background:new 0 0 259.2 259.2;" xml:space="preserve">
<style type="text/css">
	.st0{fill:#011627;}
</style>
<g id="Layer_x0020_1">
	<g id="_2744503397888">
		<path class="st0" d="M223.2,129.6c0-25.8-10.5-49.2-27.4-66.2c-17-16.9-40.4-27.4-66.2-27.4S80.4,46.4,63.4,63.4
			C46.4,80.4,36,103.8,36,129.6s10.5,49.2,27.4,66.2c17,16.9,40.4,27.4,66.2,27.4s49.2-10.5,66.2-27.4
			C212.8,178.8,223.2,155.4,223.2,129.6z M157.3,105.6c-1.6-1.5-1.7-4.1-0.1-5.7c1.5-1.6,4.1-1.7,5.7-0.1c4.1,3.9,7.2,8.5,9.4,13.6
			c2.2,5.1,3.3,10.6,3.3,16.2c0,5.6-1.2,11.1-3.3,16.2c-2.2,5.1-5.3,9.7-9.4,13.6c-1.6,1.6-4.2,1.5-5.7-0.1
			c-1.6-1.6-1.5-4.2,0.1-5.7c3.2-3.1,5.8-6.9,7.5-11c1.7-4,2.6-8.4,2.6-13c0-4.5-0.9-9-2.7-13.1
			C163.2,112.5,160.6,108.7,157.3,105.6z M172.2,90.1c-1.6-1.5-1.7-4.1-0.1-5.7c1.5-1.6,4.1-1.7,5.7-0.1c6.2,5.9,11,13,14.3,20.6
			c3.3,7.8,5,16.1,5,24.6s-1.7,16.8-5,24.6s-8.1,14.7-14.2,20.6c-1.6,1.6-4.2,1.5-5.7-0.1c-1.6-1.6-1.5-4.2,0.1-5.7
			c5.4-5.2,9.5-11.3,12.4-18c2.8-6.6,4.3-13.9,4.3-21.4s-1.5-14.7-4.4-21.5C181.8,101.4,177.6,95.3,172.2,90.1z M136.7,138.9v-18.6
			v-8.2V91.2l-36.3,19.2v38.2l36.3,19.3v-16.8V138.9z M92.3,147.1v-35H78v35H92.3z M95.4,104l40.9-21.7c0.1,0,0.2-0.1,0.4-0.2
			c1.3-0.6,2.8-0.6,4.1-0.2c1.4,0.5,2.7,1.4,3.5,2.9c0,0,0,0.1,0.1,0.2c0.2,0.4,0.3,0.8,0.4,1.2c0.1,0.5,0.1,1,0.1,1.3v24.7v5.3
			c0.6,0.3,1.2,0.6,1.7,0.9c0.1,0.1,0.2,0.1,0.3,0.2c0.6,0.5,1.2,1,1.8,1.5c0.2,0.2,0.4,0.4,0.5,0.5c1.1,1.2,1.9,2.6,2.5,4
			c0.6,1.6,1,3.3,1,5.1c0,3.4-1.2,6.8-3.8,9.5c-0.1,0.2-0.3,0.4-0.6,0.6c-0.6,0.5-1.2,0.9-1.8,1.3c-0.5,0.3-1.1,0.6-1.6,0.9v9.3
			v20.6c0,1.6-0.6,3-1.7,4.1c-1.1,1.1-2.5,1.8-4.2,1.8c-0.5,0-1-0.1-1.5-0.2h0l0,0c-0.4-0.1-0.7-0.2-1.1-0.4l-0.1,0l0,0l-40.9-21.7
			H75.7c-1.6,0-3-0.6-4.1-1.7c-1.1-1.1-1.8-2.5-1.8-4.2v-39.6c0-1.6,0.7-3.1,1.8-4.2c1.1-1,2.5-1.7,4.1-1.7H95.4z M201.6,57.6
			c18.4,18.4,29.8,43.8,29.8,72s-11.4,53.5-29.8,72s-43.8,29.8-72,29.8s-53.5-11.4-72-29.8s-29.8-43.8-29.8-72s11.4-53.5,29.8-72
			s43.8-29.8,72-29.8S183.1,39.2,201.6,57.6z"/>
	</g>
</g>
</svg>
